<svg width="20" height="20" viewBox="0 0 20 20" fill="none" xmlns="http://www.w3.org/2000/svg">
<g id="Group">
<path id="Vector" d="M10.0001 7C11.6501 7 13.0001 8.35 13.0001 10C13.0001 11.65 11.6501 13 10.0001 13C8.35009 13 7.00009 11.65 7.00009 10C7.00009 8.35 8.35009 7 10.0001 7ZM10.0001 6C7.79009 6 6.00009 7.79 6.00009 10C6.00009 12.21 7.79009 14 10.0001 14C12.2101 14 14.0001 12.21 14.0001 10C14.0001 7.79 12.2101 6 10.0001 6ZM11.2201 1L11.7701 3.2L11.9001 3.71L12.4001 3.89C13.0101 4.12 13.5901 4.45 14.1201 4.87L14.5201 5.19L15.0201 5.05L17.1901 4.43L18.4101 6.54L16.7801 8.13L16.4101 8.49L16.4901 9C16.5401 9.32 16.5701 9.64 16.5701 9.98C16.5701 10.32 16.5401 10.64 16.4901 10.96L16.4101 11.47L16.7801 11.83L18.4101 13.42L17.1901 15.53L15.0201 14.91L14.5201 14.77L14.1201 15.09C13.5901 15.52 13.0101 15.85 12.4001 16.07L11.9001 16.25L11.7701 16.76L11.2201 19H8.78009L8.23009 16.8L8.10009 16.29L7.60009 16.11C7.00009 15.88 6.42009 15.55 5.88009 15.12L5.48009 14.8L4.98009 14.94L2.81009 15.56L1.60009 13.44L3.23009 11.85L3.60009 11.49L3.52009 10.98C3.47009 10.66 3.44009 10.33 3.44009 10C3.44009 9.67 3.47009 9.34 3.52009 9.02L3.60009 8.51L3.23009 8.15L1.60009 6.56L2.82009 4.45L4.99009 5.07L5.49009 5.21L5.89009 4.89C6.42009 4.45 7.00009 4.12 7.61009 3.9L8.11009 3.72L8.24009 3.21L8.78009 1H11.2201ZM12.0001 0H8.00009L7.26009 2.96C6.53009 3.23 5.86009 3.62 5.26009 4.1L2.34009 3.27L0.340088 6.73L2.53009 8.86C2.47009 9.23 2.44009 9.61 2.44009 10C2.44009 10.39 2.47009 10.77 2.53009 11.14L0.340088 13.27L2.34009 16.73L5.26009 15.9C5.86009 16.38 6.53009 16.77 7.26009 17.04L8.00009 20H12.0001L12.7401 17.04C13.4701 16.77 14.1401 16.38 14.7401 15.9L17.6601 16.73L19.6601 13.27L17.4701 11.14C17.5301 10.77 17.5601 10.39 17.5601 10C17.5601 9.61 17.5301 9.23 17.4701 8.86L19.6601 6.73L17.6601 3.27L14.7401 4.1C14.1401 3.62 13.4701 3.23 12.7401 2.96L12.0001 0Z" fill="white"/>
</g>
</svg>
