<svg width="6" height="10" viewBox="0 0 6 10" fill="none" xmlns="http://www.w3.org/2000/svg">
<path d="M2.29102 4.20117H3.06445C3.44336 4.20117 3.75586 4.13867 4.00195 4.01367C4.25195 3.88477 4.4375 3.71094 4.55859 3.49219C4.68359 3.26953 4.74609 3.01953 4.74609 2.74219C4.74609 2.41406 4.69141 2.13867 4.58203 1.91602C4.47266 1.69336 4.30859 1.52539 4.08984 1.41211C3.87109 1.29883 3.59375 1.24219 3.25781 1.24219C2.95312 1.24219 2.68359 1.30273 2.44922 1.42383C2.21875 1.54102 2.03711 1.70898 1.9043 1.92773C1.77539 2.14648 1.71094 2.4043 1.71094 2.70117H0.626953C0.626953 2.26758 0.736328 1.87305 0.955078 1.51758C1.17383 1.16211 1.48047 0.878906 1.875 0.667969C2.27344 0.457031 2.73438 0.351562 3.25781 0.351562C3.77344 0.351562 4.22461 0.443359 4.61133 0.626953C4.99805 0.806641 5.29883 1.07617 5.51367 1.43555C5.72852 1.79102 5.83594 2.23438 5.83594 2.76562C5.83594 2.98047 5.78516 3.21094 5.68359 3.45703C5.58594 3.69922 5.43164 3.92578 5.2207 4.13672C5.01367 4.34766 4.74414 4.52148 4.41211 4.6582C4.08008 4.79102 3.68164 4.85742 3.2168 4.85742H2.29102V4.20117ZM2.29102 5.0918V4.44141H3.2168C3.75977 4.44141 4.20898 4.50586 4.56445 4.63477C4.91992 4.76367 5.19922 4.93555 5.40234 5.15039C5.60938 5.36523 5.75391 5.60156 5.83594 5.85938C5.92188 6.11328 5.96484 6.36719 5.96484 6.62109C5.96484 7.01953 5.89648 7.37305 5.75977 7.68164C5.62695 7.99023 5.4375 8.25195 5.19141 8.4668C4.94922 8.68164 4.66406 8.84375 4.33594 8.95312C4.00781 9.0625 3.65039 9.11719 3.26367 9.11719C2.89258 9.11719 2.54297 9.06445 2.21484 8.95898C1.89062 8.85352 1.60352 8.70117 1.35352 8.50195C1.10352 8.29883 0.908203 8.05078 0.767578 7.75781C0.626953 7.46094 0.556641 7.12305 0.556641 6.74414H1.64062C1.64062 7.04102 1.70508 7.30078 1.83398 7.52344C1.9668 7.74609 2.1543 7.91992 2.39648 8.04492C2.64258 8.16602 2.93164 8.22656 3.26367 8.22656C3.5957 8.22656 3.88086 8.16992 4.11914 8.05664C4.36133 7.93945 4.54688 7.76367 4.67578 7.5293C4.80859 7.29492 4.875 7 4.875 6.64453C4.875 6.28906 4.80078 5.99805 4.65234 5.77148C4.50391 5.54102 4.29297 5.37109 4.01953 5.26172C3.75 5.14844 3.43164 5.0918 3.06445 5.0918H2.29102Z" fill="#AAAAAA"/>
</svg>
